<?xml version="1.0" encoding="UTF-8"?><svg id="Layer_2" xmlns="http://www.w3.org/2000/svg" viewBox="0 0 92.65 101.54"><defs><style>.cls-1{fill:#002d5b;}.cls-2{fill:#cd163f;}</style></defs><g id="Layer_1-2"><path class="cls-1" d="m5.18,59.69c.09-.48.25-.72.47-.72.11,0,.22.05.32.15.1.1.25.34.43.71l7.6,15.69,7.57-15.89c.11-.22.21-.39.29-.5.08-.11.19-.17.32-.17.26,0,.43.29.5.86l2.53,17.2c.13.89.28,1.55.46,1.98.18.43.48.71.9.83.41.13.75.21,1.03.24.28.03.51.04.7.04.3,0,.44.07.44.19,0,.11-.07.19-.21.24-.14.05-.31.07-.51.07-.17,0-.51,0-1.02-.01-.51,0-1.06-.02-1.66-.04-.59-.02-1.17-.04-1.73-.06-.56-.02-.97-.04-1.25-.06-.32-.04-.53-.07-.64-.11-.11-.04-.17-.1-.17-.19,0-.11.1-.21.31-.31.09-.04.15-.15.18-.33.03-.19.01-.47-.04-.86l-1.67-12.24h-.11l-6.07,12.63c-.32.65-.53,1.07-.65,1.27-.12.19-.25.29-.38.29s-.27-.13-.42-.38c-.15-.25-.33-.59-.56-1.02-.17-.32-.41-.79-.74-1.42-.32-.63-.65-1.28-.99-1.93s-.64-1.27-.93-1.82c-.29-.56-.47-.94-.54-1.14-.06-.15-.19-.45-.42-.92-.22-.46-.48-1-.77-1.6-.29-.6-.58-1.23-.89-1.89-.31-.66-.58-1.25-.82-1.77h-.11l-1.45,11.07c-.04.26-.06.49-.07.68,0,.19-.01.4-.01.63,0,.26.08.46.24.6.16.14.36.24.6.29.26.06.48.09.67.11s.35.03.5.03c.11,0,.21.01.29.04.08.03.13.08.13.15,0,.2-.22.31-.67.31-.59,0-1.16-.01-1.71-.04s-.95-.04-1.21-.04c-.13,0-.31,0-.53.01-.22,0-.46.02-.71.03-.25,0-.51.02-.78.03-.27,0-.51.01-.74.01-.15,0-.27-.02-.36-.06-.09-.04-.14-.12-.14-.25s.15-.19.44-.19c.11,0,.23,0,.35-.01.12,0,.28-.03.49-.07.39-.09.66-.36.81-.81.15-.45.26-.91.33-1.39l2.75-18.14Z"/><path class="cls-1" d="m33.17,67.64v-4.17c0-.43,0-.77-.01-1.02,0-.25-.02-.49-.04-.71-.04-.48-.13-.84-.28-1.09-.15-.24-.45-.41-.92-.5-.11-.04-.27-.06-.47-.07-.2,0-.41-.01-.61-.01-.32,0-.47-.08-.47-.25s.2-.25.61-.25c.37,0,.75,0,1.14.01.39,0,.76.01,1.11.01.37.02.71.03,1,.04.3,0,.55.01.75.01h5.12c.46,0,.86,0,1.2-.01.33,0,.55-.01.64-.01.26-.04.5-.06.71-.08s.38-.05.49-.08c.07-.02.15-.04.22-.07.07-.03.15-.04.22-.04.11,0,.17.08.17.25,0,.09-.03.26-.08.49-.06.23-.1.67-.14,1.32,0,.07,0,.19-.01.36s-.02.35-.04.54c-.02.19-.03.38-.04.56,0,.18-.02.3-.04.38-.02.07-.05.14-.08.21-.04.07-.1.1-.19.1-.17,0-.25-.13-.25-.39,0-.09,0-.24-.03-.45-.02-.2-.07-.39-.14-.56-.09-.24-.25-.45-.49-.61-.23-.17-.69-.3-1.38-.39-.11-.02-.36-.03-.74-.04-.38,0-.78-.02-1.21-.03-.43,0-.84-.02-1.22-.03-.39,0-.65-.01-.78-.01s-.19.09-.19.28v7.04c0,.2.06.31.19.31h2.2c.48,0,.94,0,1.36-.01.43,0,.72-.02.89-.04.33-.04.61-.08.82-.13.21-.05.38-.14.51-.29.2-.24.35-.36.44-.36.13,0,.19.07.19.22,0,.09-.02.28-.07.56-.05.28-.1.77-.15,1.47,0,.15,0,.32-.03.5s-.03.37-.04.56c0,.19-.02.35-.03.5,0,.15-.01.25-.01.31,0,.11,0,.23-.03.35-.02.12-.09.18-.22.18-.17,0-.25-.08-.25-.25-.02-.15-.03-.31-.04-.47s-.03-.34-.07-.53c-.07-.28-.22-.51-.44-.71-.22-.19-.59-.32-1.11-.38-.13-.02-.38-.03-.75-.04-.37,0-.77-.02-1.18-.03-.42,0-.82-.01-1.21-.01h-.81c-.11,0-.17.09-.17.28v6.51c.02.48.07.88.15,1.18.08.31.24.54.47.71.23.17.57.28,1,.35.44.07,1.01.1,1.71.1.37,0,.81-.01,1.31-.04.5-.03.94-.12,1.31-.29.37-.17.65-.41.83-.72.19-.32.32-.76.42-1.34.06-.28.16-.42.31-.42.11,0,.18.05.19.14.02.09.03.21.03.36,0,.17-.01.39-.04.68s-.06.58-.1.89c-.04.31-.07.6-.11.89-.04.29-.07.5-.11.63-.06.19-.11.32-.17.42-.06.09-.14.16-.25.21s-.26.07-.43.08c-.18,0-.39.01-.65.01-1.06,0-1.98,0-2.75-.03-.78-.02-1.47-.04-2.06-.06-.59-.04-1.12-.06-1.57-.07-.45,0-.9-.01-1.32-.01h-.67c-.28,0-.58,0-.92.03-.32,0-.64,0-.99.03-.34.02-.65.03-.93.03-.37,0-.56-.09-.56-.28,0-.15.15-.22.45-.22.2,0,.39,0,.56-.03s.31-.05.44-.08c.28-.06.47-.22.57-.5.1-.28.18-.62.24-1.03.07-.59.12-1.41.13-2.45,0-1.04.01-2.2.01-3.48v-4.9Z"/><path class="cls-1" d="m54.45,61.13l-4.15.11c-.82.04-1.42.1-1.81.19-.39.09-.69.3-.89.61-.15.2-.26.39-.32.56-.07.17-.12.31-.15.42-.06.22-.16.33-.31.33-.17,0-.25-.15-.25-.45,0-.11.03-.33.08-.65.06-.32.12-.67.18-1.03.06-.36.13-.69.19-.99.06-.3.11-.47.12-.53.07-.35.19-.53.33-.53.11,0,.25.05.42.14.17.09.43.16.78.19.41.04.86.07,1.35.1.49.03.97.04,1.43.04h11.02c.44,0,.82-.01,1.14-.04.31-.03.57-.06.78-.1.2-.04.37-.07.49-.1s.21-.04.26-.04c.15,0,.22.19.22.58,0,.15,0,.37-.01.65s-.02.59-.03.9c0,.32-.02.63-.03.93,0,.31-.01.55-.01.74-.04.3-.12.45-.25.45-.19,0-.29-.19-.31-.56l-.03-.31c-.02-.19-.08-.37-.19-.54-.11-.18-.29-.34-.54-.49-.25-.15-.58-.27-1-.36-.42-.09-.93-.15-1.54-.17l-3.51-.08v11.41c0,1.28,0,2.44.01,3.49,0,1.05.05,1.87.13,2.46.04.39.12.72.25,1,.13.28.41.45.83.5.2.04.44.07.71.08.27.02.51.03.71.03.3,0,.44.07.44.22,0,.19-.18.28-.53.28-.93,0-1.79-.01-2.59-.04-.8-.03-1.39-.04-1.78-.04-.17,0-.39,0-.67.01-.28,0-.58.02-.9.03-.32,0-.66.02-1,.03-.34,0-.65.01-.93.01-.37,0-.56-.09-.56-.28,0-.15.15-.22.44-.22.2,0,.39,0,.56-.03s.32-.05.45-.08c.28-.06.47-.22.58-.5.11-.28.19-.62.22-1.03.07-.59.12-1.41.13-2.45,0-1.04.01-2.2.01-3.48v-11.41Z"/><path class="cls-1" d="m70.51,67.64v-4.17c0-.43,0-.77-.01-1.02,0-.25-.02-.49-.04-.71-.06-.91-.37-1.43-.95-1.56-.15-.04-.31-.06-.49-.08-.18-.02-.35-.03-.51-.03-.3,0-.44-.09-.44-.28,0-.15.22-.22.67-.22.26,0,.56,0,.89.01s.67.02,1,.03.65.02.96.03c.31,0,.56.01.77.01.17,0,.39,0,.67-.01.28,0,.57-.02.89-.03.31,0,.64-.02.96-.03.32,0,.62-.01.88-.01.39,0,.58.07.58.22,0,.19-.15.28-.45.28-.15,0-.28,0-.4.01-.12,0-.26.03-.43.07-.37.07-.63.24-.77.49-.14.25-.23.62-.26,1.1-.02.22-.03.46-.04.71,0,.25-.01.59-.01,1.02v9.07c0,1.35,0,2.56.01,3.62,0,1.06.04,1.88.1,2.48.04.37.13.68.26.92s.42.39.85.45c.2.04.44.07.71.08.27.02.51.03.71.03.3,0,.45.07.45.22,0,.19-.18.28-.53.28-.93,0-1.79-.01-2.59-.04-.8-.03-1.38-.04-1.75-.04-.17,0-.39,0-.67.01-.28,0-.58.02-.9.03-.32,0-.66.02-1,.03-.34,0-.65.01-.93.01-.37,0-.56-.09-.56-.28,0-.15.15-.22.45-.22.2,0,.39,0,.56-.03s.31-.05.44-.08c.28-.06.47-.2.58-.43.11-.23.18-.55.22-.96.07-.59.12-1.41.13-2.46,0-1.05.01-2.25.01-3.6v-4.9Z"/><path class="cls-1" d="m83.42,80.83c-.65-.11-1.27-.3-1.86-.56-.22-.09-.37-.19-.43-.31-.06-.11-.1-.32-.1-.64,0-.39,0-.77.01-1.15,0-.38.02-.74.04-1.07s.04-.63.06-.88c.02-.25.03-.43.03-.54.02-.2.05-.38.1-.51.05-.14.12-.21.24-.21.13,0,.21.05.24.15.03.1.04.21.04.32,0,.19.02.41.07.67s.11.51.18.75c.31,1.04.84,1.77,1.57,2.18.73.42,1.53.63,2.41.63.63,0,1.18-.1,1.64-.29.46-.19.85-.45,1.15-.75.31-.31.54-.64.7-1.02.16-.37.24-.74.24-1.11,0-.33-.03-.67-.1-1.02-.07-.34-.19-.69-.39-1.04-.19-.35-.47-.73-.83-1.13-.36-.4-.83-.82-1.4-1.27l-1.28-1c-.76-.59-1.4-1.17-1.93-1.73-.53-.56-.96-1.1-1.28-1.63-.32-.53-.56-1.06-.7-1.6-.14-.54-.21-1.09-.21-1.64,0-.76.15-1.47.46-2.11.31-.65.74-1.21,1.31-1.67.57-.46,1.24-.83,2.03-1.09.79-.26,1.66-.39,2.63-.39.91,0,1.66.06,2.25.17.59.11,1.08.21,1.45.31.26.06.39.17.39.33,0,.19-.02.51-.06.99-.04.47-.06,1.26-.06,2.35,0,.32-.02.53-.07.65-.05.12-.13.18-.24.18-.19,0-.28-.17-.28-.5,0-.13-.05-.38-.14-.74-.09-.36-.29-.73-.58-1.1-.11-.13-.25-.27-.4-.43-.16-.16-.36-.31-.6-.45s-.53-.25-.86-.35c-.33-.09-.72-.14-1.17-.14-1.04,0-1.85.27-2.43.81-.58.54-.88,1.22-.88,2.06,0,.32.05.62.14.92.09.3.25.6.47.9.22.31.52.64.9.99.38.35.86.75,1.43,1.2l.78.58c.83.63,1.54,1.23,2.13,1.81.58.58,1.06,1.14,1.42,1.7.36.56.62,1.13.78,1.71.16.58.24,1.21.24,1.88,0,.41-.04.83-.13,1.25-.08.43-.23.85-.43,1.28-.2.43-.47.83-.81,1.22s-.75.75-1.25,1.09c-.71.45-1.43.75-2.18.9-.75.16-1.5.24-2.24.24-.82,0-1.55-.06-2.2-.17Z"/><path class="cls-1" d="m3.18,95.57c0,.96,0,1.81,0,2.57,0,.75.04,1.34.09,1.77.03.29.09.54.18.74.09.2.29.32.6.36.15.03.31.05.49.06.18.01.32.02.41.02.11,0,.16.04.16.12,0,.11-.11.16-.32.16-.28,0-.56,0-.84-.01-.28,0-.54-.01-.77-.02-.23,0-.43-.01-.58-.02-.15,0-.24,0-.27,0s-.12,0-.27,0-.33.01-.53.02-.41.01-.62.02c-.21,0-.39.01-.54.01-.21,0-.32-.05-.32-.16,0-.08.05-.12.16-.12.09,0,.19,0,.3-.02s.21-.03.3-.06c.2-.04.34-.16.41-.36.07-.2.13-.45.17-.74.05-.43.08-1.01.09-1.77,0-.75,0-1.61,0-2.57v-6.59c0-.31,0-.55,0-.73,0-.18-.02-.35-.03-.51-.04-.65-.27-1.02-.68-1.12-.11-.03-.22-.05-.34-.06s-.21-.02-.28-.02c-.11,0-.16-.04-.16-.12,0-.11.11-.16.32-.16.16,0,.35,0,.58.01s.44.01.64.02.38.01.53.02c.15,0,.24.01.27.01s.12,0,.27-.01c.15,0,.33-.01.53-.02s.41-.01.62-.02c.21,0,.39-.01.54-.01.21,0,.32.05.32.16,0,.08-.05.12-.16.12-.07,0-.14,0-.21.01-.07,0-.17.02-.29.05-.27.05-.45.17-.55.35-.1.18-.16.44-.19.79-.01.16-.02.33-.03.51,0,.18,0,.42,0,.73v6.59Z"/><path class="cls-1" d="m8.31,92.06v-3.08c0-.31,0-.55,0-.73,0-.18-.02-.35-.03-.51-.03-.35-.09-.61-.2-.78s-.33-.29-.66-.36c-.08-.03-.19-.04-.33-.05s-.26-.01-.35-.01c-.11,0-.16-.04-.16-.12,0-.11.11-.16.32-.16.23,0,.47,0,.72.01.25,0,.49.01.71.02s.41.01.56.02c.15,0,.24.01.27.01.05,0,.18,0,.37-.01.19,0,.41-.01.66-.02s.49-.01.73-.02.44-.01.6-.01c.64,0,1.27.05,1.91.15.63.1,1.21.34,1.75.73.12.09.26.22.42.39.16.17.31.36.45.59.14.23.26.49.36.78.1.29.15.61.15.96,0,.75-.18,1.49-.54,2.25s-.99,1.54-1.88,2.37c.83,1.05,2.78,4.34,3.27,5.05.52.75.93,1.01,1.34,1.19.41.17.75.28,1,.32.19.03.35.04.48.05.13,0,.23.01.3.01.12,0,.18.04.18.12,0,.07-.03.11-.1.13s-.19.03-.38.03h-1.42c-.56,0-.99-.03-1.3-.08-.31-.05-.59-.15-.84-.3-.43-.23-3.33-5.14-3.5-5.36-.17-.22-.3-.4-.39-.53-.08-.08-.17-.12-.26-.12l-2.46-.04c-.09,0-.14.05-.14.16v.48c0,.96,0,1.81.01,2.57,0,.75.04,1.34.09,1.77.03.29.09.54.18.74.09.2.29.32.6.36.15.03.31.05.49.06.18.01.32.02.41.02.11,0,.16.04.16.12,0,.11-.11.16-.32.16-.28,0-.56,0-.84-.01-.28,0-.54-.01-.77-.02-.23,0-.43-.01-.58-.02-.15,0-.24,0-.27,0-.28.01-.52.02-.72.03s-.41.01-.62.02c-.21,0-.39.01-.54.01-.21,0-.32-.05-.32-.16,0-.08.05-.12.16-.12.09,0,.19,0,.3-.02s.21-.03.3-.06c.2-.04.34-.16.41-.36.07-.2.13-.45.17-.74.05-.43.08-1.01.09-1.77,0-.75,0-1.61,0-2.57v-3.51Zm1.6,1.74c0,.11.05.19.14.24.15.09.42.17.83.23.41.06.83.09,1.27.09.24,0,.49-.02.76-.07.27-.05.51-.15.74-.31.35-.24.64-.62.87-1.15.23-.53.35-1.17.35-1.93,0-1.25-.31-2.23-.92-2.94s-1.46-1.06-2.54-1.06c-.31,0-.58.01-.82.04-.24.03-.41.05-.52.08-.11.04-.16.12-.16.24v6.53Z"/><path class="cls-1" d="m23.12,92.06v-3.08c0-.31,0-.55-.01-.73,0-.18-.02-.35-.03-.51-.03-.35-.09-.61-.2-.78-.11-.17-.33-.29-.66-.36-.08-.03-.19-.04-.33-.05s-.26-.01-.35-.01c-.11,0-.16-.04-.16-.12,0-.11.11-.16.32-.16h.72c.25,0,.49,0,.72.02l.82.04h2.16c.55,0,1.05,0,1.53-.01.47,0,1.75,0,1.87,0,.39-.03.67-.06.86-.1.05-.01.1-.03.14-.06.04-.03.09-.04.14-.04s.08.06.08.18c0,.07-.02.17-.06.31-.04.14-.07.35-.1.63,0,.05,0,.14-.01.26,0,.12-.02.25-.03.39-.01.14-.02.27-.03.4,0,.13-.02.22-.03.27-.01.05-.03.1-.05.15-.02.05-.05.07-.09.07-.11,0-.16-.09-.16-.26,0-.07,0-.17-.02-.32-.01-.15-.05-.28-.1-.4-.07-.16-.19-.3-.36-.41-.17-.11-1.51-.2-2.04-.27-.08-.01-.26-.02-.54-.03-.28,0-.57-.01-.88-.02-.31,0-.59,0-.86,0h-.46c-.08,0-.12.07-.12.2v5.51c0,.13.04.2.12.2h1.5c.36,0,.7,0,1.02,0,.32,0,1.52-.02,1.64-.03.24-.03.43-.05.58-.08.15-.03.27-.09.36-.2.15-.17.25-.26.3-.26.07,0,.1.05.1.16,0,.07-.02.19-.06.36-.04.17-.07.43-.1.76-.01.11-.02.22-.03.35,0,.13-.01.25-.02.38,0,.13-.01.24-.02.34,0,.1-.01.17-.01.21,0,.08,0,.16-.02.25-.01.09-.05.13-.12.13-.09,0-.14-.06-.14-.18,0-.11,0-.21,0-.31,0-.1-.03-.22-.07-.35-.04-.15-.13-.29-.26-.43s-1.38-.23-1.76-.27c-.13-.01-.34-.03-.63-.04-.29-.01-.58-.02-.88-.03-.3,0-.58-.01-.84-.02-.26,0-.43,0-.51,0-.09,0-.14.05-.14.14v5.17c.01.35.05.63.11.84.06.21.17.38.34.5.17.12.4.2.69.24.29.04.69.06,1.18.06.27,0,1.57,0,1.94-.03.37-.02.69-.08.96-.19.27-.11.47-.27.6-.49.13-.22.23-.54.3-.95.04-.2.1-.3.18-.3.07,0,.1.03.11.1,0,.07.01.13.01.2,0,.04-.01.14-.03.31-.02.17-.04.35-.07.56-.03.21-.05.41-.08.61s-.05.35-.08.46c-.04.13-.08.23-.12.3-.04.07-.1.12-.18.15-.08.03-.18.05-.3.06-.12,0-.28,0-.48,0-.76,0-2.4,0-2.95-.02s-1.02-.03-1.41-.04c-.39-.03-.71-.04-.96-.05-.25,0-.45,0-.6,0h-.26c-.15,0-.33,0-.54.02-.2,0-.41,0-.62.02-.21.01-.39.02-.54.02-.21,0-.32-.05-.32-.16,0-.08.05-.12.16-.12.09,0,.19,0,.3-.02s.21-.03.3-.06c.2-.04.34-.16.41-.36.07-.2.13-.45.17-.74.05-.43.08-1.01.09-1.77,0-.75.01-1.61.01-2.57v-3.51Z"/><path class="cls-1" d="m36.39,95.61c0,1.46.03,2.55.08,3.25.05.71.17,1.15.36,1.32.08.08.18.15.29.21.11.06.26.11.44.14s.41.06.68.08.6.03.99.03c.53,0,1.99-.03,2.41-.08.42-.05.75-.23.99-.52.13-.16.25-.35.34-.58s.15-.43.18-.62c.03-.17.09-.26.18-.26.08,0,.12.1.12.3,0,.05,0,.16-.02.32-.01.16-.04.34-.07.54-.03.2-.07.4-.1.61-.03.21-.07.38-.11.53-.04.12-.08.21-.11.28-.03.07-.09.12-.17.16-.08.04-.2.07-.35.08-.15.01-.36.02-.63.02-.72,0-2.33,0-2.86-.02s-1.01-.03-1.44-.04c-.43-.03-.8-.04-1.12-.05-.32,0-.63,0-.92,0-.04,0-.14,0-.29,0-.15,0-.33.01-.53.01-.2.01-.4.02-.61.03-.21,0-.38.01-.53.01-.21,0-.32-.05-.32-.16,0-.08.05-.12.16-.12.09,0,.19,0,.3-.02s.21-.03.3-.06c.2-.04.34-.16.41-.36.07-.2.13-.45.17-.74.05-.43.08-1.01.09-1.77,0-.75.01-1.61.01-2.57v-6.59c0-.31,0-.55-.01-.73,0-.18-.02-.35-.03-.51-.03-.35-.09-.61-.2-.78-.11-.17-.33-.29-.66-.36-.08-.03-.19-.04-.33-.05s-.26-.01-.35-.01c-.11,0-.16-.04-.16-.12,0-.11.11-.16.32-.16.23,0,.47,0,.72.01.25,0,.49.01.71.02.22,0,.41.01.56.02.15,0,.24.01.27.01s.13,0,.3-.01c.17,0,.37-.01.6-.02.23,0,.46-.01.69-.02s.42-.01.57-.01c.21,0,.32.05.32.16,0,.08-.05.12-.16.12-.07,0-.16,0-.29.01-.13,0-.25.02-.37.05-.29.05-.49.17-.59.35-.1.18-.16.44-.19.79-.01.16-.02.33-.03.51,0,.18-.01.42-.01.73v6.63Z"/><path class="cls-1" d="m51.22,86.76c.12-.33.21-.55.26-.64.05-.09.11-.14.18-.14s.13.04.18.13c.05.09.14.28.26.59.05.12.18.43.37.94.19.51.43,1.12.7,1.85s.58,1.52.91,2.39c.33.87.66,1.72.99,2.57s.64,1.65.94,2.41.55,1.39.75,1.9c.17.44.34.8.51,1.08s.32.5.46.66c.14.16.27.27.4.34.13.07.24.11.35.14.15.05.29.09.43.1s.26.02.37.02c.13,0,.2.04.2.12,0,.07-.04.11-.12.13-.08.02-.17.03-.28.03h-1.18c-.28,0-.59,0-.93-.01-.34,0-.68-.02-1.03-.03-.19-.01-.33-.02-.44-.03s-.16-.04-.16-.11.05-.11.14-.14c.07-.03.12-.08.16-.17.04-.09.03-.21-.04-.37l-1.86-4.91c-.04-.08-.1-.12-.18-.12h-4.29c-.09,0-.16.05-.2.16l-1.2,3.53c-.19.52-.28.97-.28,1.34,0,.2.08.35.25.44.17.09.34.14.51.14h.2c.13,0,.2.04.2.12,0,.11-.1.16-.3.16-.12,0-.26,0-.42-.01-.16,0-.31-.01-.46-.02s-.28-.01-.41-.02-.22,0-.27,0-.16,0-.31,0c-.15,0-.34.01-.55.02s-.44.01-.68.02c-.24,0-.48.01-.72.01-.25,0-.38-.05-.38-.16,0-.08.06-.12.18-.12.07,0,.16,0,.28-.01.12,0,.22-.02.3-.03.47-.07.82-.27,1.05-.61.23-.34.44-.76.63-1.27l4.53-12.4Zm2.08,7.99c.08,0,.11-.05.08-.14l-1.9-5.39c-.11-.29-.21-.29-.3,0l-1.76,5.39c-.04.09-.02.14.06.14h3.81Z"/><path class="cls-1" d="m63.27,98.65c.01.41.04.76.07,1.03s.08.5.14.68c.06.18.14.32.23.41.09.09.21.16.34.2.19.05.38.09.57.1.19.01.34.02.43.02.11,0,.16.04.16.12,0,.11-.12.16-.36.16-.57,0-1.05-.01-1.42-.03s-.61-.03-.7-.03-.32,0-.69.03c-.37.02-.78.03-1.23.03-.21,0-.32-.05-.32-.16,0-.08.05-.12.16-.12.08,0,.2,0,.36-.02.16-.01.31-.05.46-.1.25-.07.42-.28.49-.64s.11-.99.11-1.9l.02-11.44c0-.39.02-.65.05-.79.03-.14.09-.21.17-.21s.19.08.33.24c.14.16.26.29.37.4.08.08.31.33.69.75.38.42.86.94,1.45,1.57s1.24,1.33,1.97,2.12c.73.79,1.47,1.59,2.25,2.42.49.53.99,1.07,1.49,1.62.5.55.97,1.06,1.41,1.54.44.48.83.9,1.16,1.27.33.37.58.63.74.79l-.22-10.14c-.01-.65-.07-1.11-.17-1.38-.1-.27-.3-.44-.61-.52-.19-.04-.38-.07-.57-.08s-.33-.02-.41-.02c-.11,0-.16-.05-.16-.14s.13-.14.4-.14c.23,0,.45,0,.67.01.22,0,.43.01.62.02.19,0,.36.01.5.02.14,0,.24.01.29.01.11,0,.31-.01.62-.03.31-.02.67-.03,1.08-.03.24,0,.36.05.36.14s-.07.14-.22.14c-.05,0-.12,0-.19.01-.07,0-.17.02-.29.05-.33.07-.54.23-.62.49-.08.26-.12.69-.12,1.29l-.04,11.7c0,.33,0,.59-.01.78s-.02.33-.03.42c-.01.09-.03.15-.05.18-.02.03-.05.04-.09.04s-.09-.02-.15-.05c-.06-.03-.14-.1-.25-.19-.11-.09-.24-.22-.41-.39-.17-.17-.38-.38-.65-.65-.05-.05-.26-.26-.61-.61-.35-.35-.78-.79-1.29-1.32-.51-.53-1.05-1.09-1.64-1.71-.59-.61-1.15-1.2-1.68-1.78-.59-.63-1.16-1.24-1.71-1.85-.55-.61-1.06-1.17-1.53-1.69-.47-.52-.87-.97-1.22-1.35s-.6-.66-.76-.85l.26,9.56Z"/><path class="cls-1" d="m79.18,92.06v-3.08c0-.31,0-.55-.01-.73,0-.18-.02-.35-.03-.51-.03-.35-.09-.61-.2-.78-.11-.17-.33-.29-.66-.36-.08-.03-.19-.04-.33-.05s-.26-.01-.35-.01c-.11,0-.16-.04-.16-.12,0-.11.11-.16.32-.16.23,0,.47,0,.72.01.25,0,.49.01.71.02.22,0,.41.01.56.02.15,0,.24.01.27.01.05,0,.17,0,.35-.01.18,0,.39-.01.64-.02.25,0,.52-.01.81-.02.29,0,.59-.01.9-.01.49,0,1.07,0,1.75.01.67,0,1.37.08,2.11.21.73.13,1.46.36,2.18.67.72.31,1.38.78,1.98,1.39.25.27.5.57.73.9.23.33.44.71.62,1.13.18.42.32.88.43,1.39.11.51.16,1.06.16,1.66s-.06,1.22-.18,1.78c-.12.56-.28,1.08-.48,1.55-.2.47-.43.9-.69,1.29-.26.39-.53.73-.81,1.02-.21.23-.49.47-.83.74-.34.27-.76.52-1.25.75-.49.23-1.06.43-1.72.58-.65.15-1.41.23-2.26.23-.43,0-.89-.01-1.39-.04-.5-.03-.96-.05-1.39-.08-.44-.03-.81-.05-1.12-.08-.31-.03-.49-.04-.54-.04h-.26c-.15,0-.33,0-.54.02-.2,0-.41,0-.62.02-.21.01-.39.02-.54.02-.21,0-.32-.05-.32-.16,0-.08.05-.12.16-.12.09,0,.19,0,.3-.02s.21-.03.3-.06c.2-.04.34-.16.41-.36.07-.2.13-.45.17-.74.05-.43.08-1.01.09-1.77,0-.75.01-1.61.01-2.57v-3.51Zm1.68,2.16v1.52c0,.48,0,.91.01,1.3,0,.39.01.71.02.98s.01.45.01.54c0,.12,0,.26.02.41.01.15.03.3.04.45.01.15.03.28.06.4s.06.21.1.26c.07.09.17.19.31.28.14.09.34.18.6.26.26.08.59.14,1,.19.41.05.9.07,1.49.07.93,0,1.81-.16,2.63-.48.82-.32,1.53-.78,2.13-1.38.25-.25.48-.56.68-.92s.37-.75.51-1.17c.14-.42.24-.86.31-1.31.07-.45.1-.91.1-1.38,0-.64-.06-1.22-.18-1.74-.12-.52-.28-.99-.47-1.41-.19-.42-.4-.79-.63-1.1-.23-.31-.44-.58-.64-.79-.47-.49-.96-.89-1.48-1.19-.52-.3-1.05-.53-1.6-.69s-1.11-.26-1.69-.31c-.58-.05-1.17-.07-1.77-.07-.11,0-.22,0-.35,0-.13,0-.26.02-.39.03s-.25.03-.35.05c-.1.02-.17.04-.21.05-.16.07-.24.2-.24.4,0,.17,0,.42,0,.74,0,.32-.01.68-.01,1.08v4.91Z"/><path class="cls-2" d="m21.84,28.19c-1.72.09-2.34,3.69-1.05,4.45-.5-1.32,1.35-4,1.05-4.45"/><path class="cls-2" d="m25.13,38.75c-.7-.03-.02.61-.44,1.3-1.11-1.85-3.07-3.28-3.41-5.51,1.83,2.21,5.7,3.43,6,6.39-.51.56-1.66-1.56-2.14-2.18"/><path class="cls-2" d="m13.99,18.75c-.14,1.26.61,2.1,2,2.61.51-1.45-1.69-1.56-2-2.61"/><path class="cls-2" d="m27.29,13.68c.48-4.68,1.78-7.57,1.82-10.94.86,2.45.04,5.72,2.24,7.51-.81-1.53-1.45-5.24-1.52-8.23-3.47-2.22-5.22-.57-6.93,1.96,2.85,1.27,2.88,5.91,4.39,9.69"/><path class="cls-2" d="m69.31,38.66c1.68,1.04,3.39,1.25,5.31,2.78.62-.69,1.26-1.33,1.75-2.29-1.65-2.32-5.26-2-7.06-.49"/><path class="cls-2" d="m24.75,7.02c-.69-.62-1.33-1.26-2.29-1.75-.56,1.03,1.67,2.48,2.29,1.75"/><path class="cls-2" d="m76.11,35.69c.67-1.32,2.19-.91,3.33-1.27.17-4.37-4.1-.86-6.17-3.07-1.82,3.55,2.26,2.46,2.85,4.35"/><path class="cls-2" d="m58.03,30.83c2.44-.13,6.53.64,8.81-1.8-3.27-2.87-6.87-.45-8.81,1.8"/><path class="cls-2" d="m56.23,40.32c1.12.33,2.14.46,2.88.02-.45-1.43-2.21-1.84-2.88-.02"/><path class="cls-2" d="m41.53,17.11c-4.41-3.02-4.76,5.29-3.21,5.16-.03-1.9-.32-4.13,1.62-4.74-1,1.57,2.35,1,1.56,2.46-.89.14-1.41,1.02-1.75,2.29.92,1.97,4.23,2.62,6.17,3.08-1.92-1.03-.88-4.41-3.42-4.06.52-1.81-.98-2.63-.98-4.19"/><path class="cls-2" d="m73.09,16.35c.34,3.74-5.76-1.02-7.49-.64-1.05,3.15,2.31,6.04,4.56,6.38-.53-.49-2.31-2.17-1.13-2.31,1.49,1.19,3.34,1.43,3.29,3.05,3.59.94,4.27-7.68.77-6.48"/><path class="cls-2" d="m71.36,2.05c-16.75-6.46-27.73,3.89-35.85,9.32C44.18,6.58,53.16,2.31,63.51.57c2.46.2,6.28,2.91,7.85,1.48"/><path class="cls-2" d="m72.75,41.28c-1.44-.09-2.21-.7-2.73-.45.28,3.61,5.42,4.69,2.73.45"/><path class="cls-2" d="m54.56,32.53c-1.77,1.4-2.1,1.2-4.05,1.99.48.24,1.25.34,1.15.87-.82.28-1.26.13-1.73-.59.44,2.04.04.58-.89,2.59,2.39.2.03,1.42.85,1.74.27-.49.56-.1.86.3,1.01-1.45-.43-1.7-.56-2.6.6.18.88.53,1.15.87-.1-2.76,3.37-2.94,5.22-3.99-.38-.54-.96-.97-2.01-1.17"/><path class="cls-2" d="m49.76,32.44c-2.29-.07-1.43-1.69-3.15-2.04-1.01,1.21,1.28.81.27,2.02-1.36-.34-2.26.27-3.46.26-.75,2.23-.24,2.77-1.76,3.73,1.21,1.01.8-1.28,2.02-.27-.54,2.54.86,4.12,2.4,5.64,3.12-1.7,1.56-6.86,3.68-9.34"/><path class="cls-2" d="m54.68,7.37c-2.93,2.52-7.02,2.69-9.59,5.95,4.69,1.89,9.6-2.49,9.59-5.95"/><path class="cls-2" d="m51.62,39.71c1.19-.02,2.62.46,3.18-.84-1.56-.74-2.27.24-3.18.84"/><path class="cls-2" d="m59.68,8.05c-.63,1.26-1.88,1.27-3.52.48.04-.64.49-1.49-.24-1.76-.04,1.48-.68,3.25.22,4.27.66-1.32,5.18-1.17,3.54-2.99"/><path class="cls-2" d="m35.99,31.53c-.13-.19-.35-.35-.73-.42-.31.26-1.26,1.24-1.01,1.92-.91.69.14.68-.79,1.3.03-.96-.58-1.57-.24-2.35-.33.28-.49-.62-.15-1.1-.26-.14-.93.17-.94-.32,1.1-.02,2.34-.06,3.23.24.19-.35-.17-.44.11-.84.53.3.71-.13,1.2.06-.02-.94-.76-.81-.98-1.73.19-.24.74.27.89-.05-.16-.39-.66-1.04-.25-1.31,1.13,1.01,1.78,3.89-.35,4.59m7.74-1.15c-2.99-4.15-7.47-5.59-7.69-11.31.32-2.03,1.46-2.39,1.9-4.16-.4-.54-4.44,1.62-4.19,2.42-1.04.04-2.86-.66-4.74-1.62.52-.9,2.19.55,3.17.6,1.17-3.45-2.49-4.52-2.83-7.23-.18,1.2-.98,3.56.68,5.05-.33.54-1.2-.01-1.88-.16-.29,3.15-.42,7.05,3.7,6.08-3.75,2.16-6.27-1.65-7.61-3.09.36-2.09.19-3.92.05-5.77-1.56.56-.26,2.74-1.47,4.31-1.91-.26.69-2.73-.26-3.46-1.19,1.56-1.59-.31-1.6,1.86-1.17-.27-1.8-.79-1.28-1.89,1.22-1.35,1.6-.16,2.18-2.14.67-1.29-.77-1.54-.56-2.6-1.81-.73-2.25.83-3.59-.75.76,1.54,2.62,2.54,1.11,5.2-.43-2.42-2.14.85-3.04,1.85,1.21,1.01.8-1.28,2.02-.27-.27,1.17-.79,1.8-1.88,1.28-.09.58,1.09,1.01,1.29.44.76,2.04-1.39.04-1.88,1.28-.58-1.39-2.99,1.06-1.74.85,2.75,2.09,5.46,4.9,9.34,3.68-.85.99,1.74,1.23,2.57,2.33-1.44,2.18-5.94-1.87-7.64-.2-.04,1.62.55-1.15,1.44,0-.75,1.45.05,2.13.41,3.03.83.43.34-1.28.01-1.44,1.89.23,3.49-.16,6.05.63-.38,1.66-.94,2.96-2.33,2.57-.06.98.43,1.71.56,2.6.72-.76,2.61-2.91,1.9-4.16.67-.84,2.22.13,2.75-.99,1.02,1.34-.9,2.04,1.42,2.89-5.58,5.45,4.3,5.16,2.32,11.15-1.85-2.92-7.62,9.82-4.95,10.59,16.48-5.94,4.98-5.75,7.42-9.02.13-.42-.42-.52-.72-.73.61-1.33,1.57.11,2.73.45-1.05-2.55.8-4.49-.67-6.49,2.31.56,3.73-.7,4.78-2.7,2.26,1.31,3.6.19,5.05-.68-.16-1.65-1.36.53-2.3-.31"/></g></svg>